<svg width="83" height="78" viewBox="0 0 83 78" fill="none" xmlns="http://www.w3.org/2000/svg">
<g filter="url(#filter0_d)">
<path d="M62.058 37.91C61.6918 37.5676 61.2569 37.2961 60.7782 37.1108C60.2995 36.9255 59.7863 36.8301 59.268 36.8301C58.7497 36.8301 58.2365 36.9255 57.7578 37.1108C57.2791 37.2961 56.8442 37.5676 56.478 37.91L50.1877 43.7807C47.2714 42.9704 41.8295 41.1289 38.3805 37.91C34.9315 34.691 32.9584 29.6121 32.0902 26.8904L38.3805 21.0197C38.7473 20.6779 39.0383 20.2721 39.2368 19.8252C39.4354 19.3784 39.5376 18.8995 39.5376 18.4158C39.5376 17.9321 39.4354 17.4531 39.2368 17.0063C39.0383 16.5595 38.7473 16.1536 38.3805 15.8119L22.5956 1.07986C22.2294 0.737542 21.7945 0.465965 21.3158 0.28067C20.837 0.0953755 20.3238 0 19.8056 0C19.2873 0 18.7741 0.0953755 18.2954 0.28067C17.8166 0.465965 17.3817 0.737542 17.0156 1.07986L6.31335 11.0682C4.81378 12.4677 3.96928 14.3903 4.00085 16.3533C4.09162 21.5979 5.57936 39.8141 20.9618 54.1704C36.3443 68.5268 55.8624 69.9116 61.4858 70H61.5963C63.6799 70 65.6491 69.2339 67.1408 67.8418L77.843 57.8534C78.2097 57.5117 78.5007 57.1058 78.6993 56.659C78.8978 56.2122 79 55.7333 79 55.2495C79 54.7658 78.8978 54.2869 78.6993 53.8401C78.5007 53.3933 78.2097 52.9874 77.843 52.6457L62.058 37.91ZM61.5568 62.6303C56.6319 62.553 39.7814 61.3191 26.5418 48.959C13.2587 36.562 11.9723 20.7803 11.8933 16.276L19.8056 8.89152L30.0105 18.4158L24.9081 23.1779C24.4442 23.6105 24.1032 24.1441 23.9158 24.7306C23.7284 25.317 23.7005 25.9378 23.8347 26.5368C23.9294 26.9604 26.2458 37.0039 32.7966 43.1177C39.3474 49.2315 50.1088 51.3934 50.5626 51.4818C51.204 51.6106 51.8699 51.5867 52.4988 51.4122C53.1277 51.2378 53.6995 50.9185 54.1616 50.4837L59.268 45.7216L69.473 55.2459L61.5568 62.6303Z" fill="#00A0C1"/>
</g>
<defs>
<filter id="filter0_d" x="0" y="0" width="83" height="78" filterUnits="userSpaceOnUse" color-interpolation-filters="sRGB">
<feFlood flood-opacity="0" result="BackgroundImageFix"/>
<feColorMatrix in="SourceAlpha" type="matrix" values="0 0 0 0 0 0 0 0 0 0 0 0 0 0 0 0 0 0 127 0"/>
<feOffset dy="4"/>
<feGaussianBlur stdDeviation="2"/>
<feColorMatrix type="matrix" values="0 0 0 0 0 0 0 0 0 0 0 0 0 0 0 0 0 0 0.25 0"/>
<feBlend mode="normal" in2="BackgroundImageFix" result="effect1_dropShadow"/>
<feBlend mode="normal" in="SourceGraphic" in2="effect1_dropShadow" result="shape"/>
</filter>
</defs>
</svg>
