<?xml version="1.0" encoding="UTF-8"?>
<svg xmlns="http://www.w3.org/2000/svg" xmlns:xlink="http://www.w3.org/1999/xlink" width="20pt" height="13pt" viewBox="0 0 20 13" version="1.1">
<g id="surface1">
<path style=" stroke:none;fill-rule:nonzero;fill:rgb(0%,0%,0%);fill-opacity:1;" d="M 7.152344 2.898438 C 7.117188 2.902344 7.027344 2.917969 6.949219 2.9375 C 6.734375 2.984375 6.539062 3.019531 6.425781 3.027344 C 6.371094 3.03125 6.308594 3.046875 6.289062 3.058594 C 6.242188 3.089844 6.164062 3.109375 6.007812 3.128906 C 5.941406 3.136719 5.851562 3.152344 5.804688 3.160156 C 5.765625 3.171875 5.636719 3.183594 5.523438 3.1875 C 5.414062 3.195312 5.304688 3.210938 5.285156 3.222656 C 5.265625 3.234375 5.21875 3.242188 5.179688 3.242188 C 5.101562 3.242188 4.960938 3.273438 4.890625 3.3125 C 4.863281 3.328125 4.789062 3.351562 4.726562 3.367188 C 4.664062 3.386719 4.535156 3.4375 4.441406 3.484375 C 4.347656 3.535156 4.246094 3.578125 4.222656 3.582031 C 4.195312 3.589844 4.15625 3.609375 4.132812 3.628906 L 4.089844 3.664062 L 4.144531 3.773438 C 4.171875 3.832031 4.207031 3.894531 4.222656 3.914062 C 4.246094 3.9375 4.246094 3.941406 4.222656 3.960938 C 4.203125 3.976562 4.191406 3.976562 4.144531 3.9375 C 4.113281 3.914062 4.074219 3.871094 4.050781 3.835938 C 3.980469 3.71875 3.925781 3.707031 3.789062 3.761719 C 3.671875 3.808594 3.652344 3.835938 3.652344 3.9375 C 3.652344 4.007812 3.660156 4.03125 3.710938 4.101562 C 3.746094 4.144531 3.808594 4.269531 3.855469 4.371094 C 3.9375 4.566406 3.949219 4.589844 4.015625 4.714844 C 4.09375 4.863281 4.230469 5.089844 4.304688 5.1875 C 4.367188 5.265625 4.671875 5.578125 4.785156 5.675781 C 4.867188 5.746094 4.921875 5.808594 4.949219 5.859375 C 4.988281 5.945312 5.207031 6.167969 5.320312 6.242188 C 5.359375 6.265625 5.394531 6.289062 5.398438 6.289062 C 5.402344 6.289062 5.519531 6.363281 5.660156 6.453125 C 6.09375 6.726562 6.160156 6.769531 6.34375 6.859375 C 6.4375 6.90625 6.523438 6.945312 6.53125 6.945312 C 6.539062 6.945312 6.628906 6.980469 6.738281 7.023438 C 6.960938 7.113281 6.933594 7.082031 7.078125 7.425781 C 7.324219 8.015625 7.53125 8.402344 7.710938 8.605469 C 7.785156 8.691406 7.867188 8.800781 7.867188 8.816406 C 7.867188 8.832031 7.929688 8.90625 8.046875 9.035156 C 8.101562 9.09375 8.148438 9.148438 8.148438 9.15625 C 8.148438 9.175781 8.402344 9.402344 8.507812 9.472656 C 8.617188 9.550781 8.769531 9.613281 8.824219 9.605469 C 8.875 9.601562 8.875 9.597656 8.910156 9.464844 C 8.957031 9.277344 8.96875 9.253906 9.035156 9.199219 C 9.085938 9.15625 9.09375 9.136719 9.101562 9.0625 C 9.113281 8.90625 9.078125 8.671875 8.992188 8.398438 C 8.902344 8.117188 8.890625 8.089844 8.796875 7.949219 C 8.726562 7.851562 8.714844 7.8125 8.75 7.8125 C 8.765625 7.8125 8.878906 7.851562 8.96875 7.890625 C 8.992188 7.898438 9.027344 7.90625 9.046875 7.90625 C 9.066406 7.90625 9.089844 7.914062 9.097656 7.921875 C 9.105469 7.929688 9.175781 7.957031 9.253906 7.980469 C 9.332031 8.003906 9.5 8.058594 9.628906 8.101562 C 9.976562 8.214844 10.082031 8.246094 10.140625 8.246094 C 10.171875 8.246094 10.214844 8.261719 10.234375 8.277344 C 10.257812 8.292969 10.304688 8.3125 10.34375 8.324219 C 10.382812 8.335938 10.433594 8.359375 10.460938 8.375 C 10.488281 8.390625 10.550781 8.414062 10.597656 8.429688 C 10.703125 8.457031 10.769531 8.519531 10.941406 8.746094 C 11.074219 8.910156 11.328125 9.175781 11.519531 9.339844 C 11.671875 9.46875 11.898438 9.703125 11.960938 9.800781 C 11.976562 9.824219 12.019531 9.886719 12.058594 9.9375 C 12.097656 9.988281 12.15625 10.074219 12.191406 10.121094 C 12.308594 10.296875 12.4375 10.398438 12.636719 10.480469 C 12.730469 10.519531 12.753906 10.523438 12.914062 10.519531 L 13.089844 10.515625 L 13.121094 10.433594 C 13.152344 10.351562 13.164062 10.101562 13.140625 10 C 13.132812 9.964844 13.136719 9.933594 13.15625 9.898438 C 13.175781 9.855469 13.183594 9.792969 13.183594 9.597656 C 13.1875 9.367188 13.1875 9.347656 13.152344 9.289062 C 13.117188 9.226562 13.0625 9.078125 13.046875 8.996094 C 13.039062 8.953125 13.011719 8.933594 12.800781 8.808594 C 12.742188 8.769531 12.707031 8.742188 12.707031 8.722656 C 12.707031 8.707031 12.71875 8.695312 12.730469 8.695312 C 12.757812 8.695312 12.894531 8.738281 13.171875 8.832031 C 13.523438 8.953125 13.628906 8.992188 13.675781 9.023438 C 13.894531 9.167969 13.984375 9.265625 14.09375 9.484375 C 14.140625 9.582031 14.21875 9.714844 14.265625 9.78125 C 14.3125 9.847656 14.378906 9.945312 14.414062 9.988281 C 14.445312 10.039062 14.496094 10.109375 14.527344 10.144531 C 14.554688 10.183594 14.636719 10.285156 14.699219 10.371094 C 14.890625 10.628906 14.953125 10.703125 15.042969 10.796875 C 15.390625 11.148438 15.539062 11.253906 15.734375 11.269531 L 15.851562 11.28125 L 15.894531 11.230469 C 15.917969 11.203125 15.9375 11.164062 15.9375 11.148438 C 15.9375 11.128906 15.941406 11.105469 15.949219 11.085938 C 15.957031 11.074219 15.972656 11.03125 15.984375 10.996094 C 16.042969 10.769531 16.0625 10.695312 16.089844 10.609375 C 16.109375 10.558594 16.140625 10.417969 16.164062 10.296875 C 16.207031 10.0625 16.324219 9.683594 16.378906 9.601562 C 16.398438 9.574219 16.445312 9.507812 16.492188 9.449219 C 16.535156 9.390625 16.585938 9.316406 16.601562 9.28125 C 16.617188 9.246094 16.65625 9.175781 16.683594 9.128906 C 16.8125 8.925781 16.84375 8.871094 16.941406 8.695312 C 16.976562 8.628906 17.03125 8.535156 17.066406 8.492188 C 17.113281 8.425781 17.128906 8.394531 17.128906 8.339844 C 17.128906 8.265625 17.167969 8.089844 17.191406 8.058594 C 17.199219 8.046875 17.210938 8.003906 17.21875 7.960938 C 17.21875 7.917969 17.230469 7.859375 17.238281 7.828125 C 17.257812 7.75 17.257812 7.660156 17.234375 7.640625 C 17.222656 7.632812 17.171875 7.621094 17.121094 7.613281 C 17.066406 7.609375 16.972656 7.597656 16.90625 7.589844 C 16.835938 7.578125 16.757812 7.578125 16.703125 7.589844 C 16.65625 7.597656 16.574219 7.601562 16.523438 7.601562 C 16.46875 7.601562 16.367188 7.613281 16.292969 7.628906 C 16.222656 7.640625 16.140625 7.652344 16.109375 7.652344 C 16.078125 7.65625 16.011719 7.664062 15.957031 7.675781 C 15.90625 7.691406 15.78125 7.707031 15.683594 7.71875 C 15.585938 7.726562 15.457031 7.742188 15.394531 7.75 C 15.285156 7.765625 15.027344 7.785156 14.761719 7.804688 C 14.632812 7.8125 14.597656 7.8125 14.511719 7.78125 C 14.453125 7.761719 14.367188 7.71875 14.316406 7.6875 C 14.136719 7.574219 13.941406 7.40625 13.953125 7.371094 C 13.960938 7.34375 14.058594 7.34375 14.15625 7.378906 C 14.296875 7.425781 14.554688 7.433594 14.632812 7.390625 C 14.808594 7.304688 15.035156 7.046875 15.066406 6.902344 C 15.101562 6.734375 14.871094 6.070312 14.671875 5.769531 C 14.644531 5.730469 14.613281 5.671875 14.601562 5.640625 C 14.574219 5.550781 14.394531 5.375 14.269531 5.304688 C 14.046875 5.183594 13.855469 5.144531 13.335938 5.101562 C 13.058594 5.078125 12.914062 5.0625 12.78125 5.03125 C 12.71875 5.019531 12.625 5.003906 12.566406 5 C 12.378906 4.980469 12.300781 4.957031 12.28125 4.898438 C 12.269531 4.875 12.234375 4.855469 12.183594 4.839844 C 12.136719 4.824219 12.09375 4.804688 12.089844 4.796875 C 12.082031 4.789062 12.070312 4.78125 12.054688 4.78125 C 12.042969 4.78125 12.003906 4.757812 11.972656 4.726562 C 11.859375 4.632812 11.824219 4.609375 11.621094 4.5 C 11.511719 4.441406 11.386719 4.371094 11.347656 4.339844 C 11.308594 4.3125 11.210938 4.253906 11.132812 4.210938 C 11.058594 4.164062 10.957031 4.109375 10.914062 4.085938 C 10.792969 4.015625 10.683594 3.964844 10.640625 3.957031 C 10.617188 3.949219 10.535156 3.894531 10.453125 3.832031 C 10.371094 3.773438 10.265625 3.707031 10.21875 3.6875 C 10.167969 3.671875 10.125 3.648438 10.117188 3.640625 C 10.105469 3.636719 10.046875 3.605469 9.984375 3.578125 C 9.917969 3.550781 9.847656 3.511719 9.824219 3.496094 C 9.765625 3.453125 9.542969 3.359375 9.472656 3.34375 C 9.4375 3.339844 9.378906 3.316406 9.339844 3.296875 C 9.253906 3.253906 9.058594 3.183594 8.972656 3.167969 C 8.9375 3.160156 8.828125 3.128906 8.730469 3.09375 C 8.628906 3.058594 8.515625 3.03125 8.476562 3.03125 C 8.4375 3.03125 8.363281 3.015625 8.308594 3 C 8.253906 2.980469 8.171875 2.964844 8.128906 2.960938 C 8.082031 2.957031 8.007812 2.945312 7.960938 2.9375 C 7.820312 2.910156 7.300781 2.886719 7.152344 2.898438 Z M 7.152344 2.898438 "/>
</g>
</svg>
