<?xml version="1.0" encoding="UTF-8"?>
<svg xmlns="http://www.w3.org/2000/svg" xmlns:xlink="http://www.w3.org/1999/xlink" width="50pt" height="32pt" viewBox="0 0 50 32" version="1.1">
<g id="surface1">
<path style=" stroke:none;fill-rule:nonzero;fill:rgb(0%,0%,0%);fill-opacity:1;" d="M 17.882812 7.136719 C 17.796875 7.140625 17.570312 7.183594 17.375 7.226562 C 16.835938 7.347656 16.34375 7.433594 16.066406 7.453125 C 15.925781 7.464844 15.773438 7.496094 15.722656 7.53125 C 15.609375 7.605469 15.410156 7.652344 15.023438 7.699219 C 14.851562 7.71875 14.625 7.753906 14.515625 7.777344 C 14.410156 7.804688 14.09375 7.835938 13.808594 7.847656 C 13.53125 7.867188 13.261719 7.902344 13.214844 7.929688 C 13.167969 7.957031 13.050781 7.976562 12.949219 7.976562 C 12.75 7.976562 12.402344 8.058594 12.226562 8.152344 C 12.15625 8.191406 11.972656 8.25 11.816406 8.292969 C 11.660156 8.332031 11.339844 8.464844 11.101562 8.578125 C 10.867188 8.699219 10.621094 8.808594 10.558594 8.820312 C 10.492188 8.839844 10.390625 8.890625 10.332031 8.933594 L 10.226562 9.023438 L 10.359375 9.292969 C 10.429688 9.4375 10.515625 9.589844 10.554688 9.628906 C 10.613281 9.691406 10.613281 9.703125 10.558594 9.753906 C 10.511719 9.792969 10.476562 9.785156 10.363281 9.691406 C 10.28125 9.640625 10.183594 9.527344 10.132812 9.445312 C 9.949219 9.15625 9.8125 9.121094 9.476562 9.257812 C 9.183594 9.378906 9.132812 9.441406 9.125 9.691406 C 9.125 9.863281 9.152344 9.921875 9.28125 10.09375 C 9.363281 10.203125 9.523438 10.507812 9.636719 10.765625 C 9.84375 11.242188 9.875 11.296875 10.039062 11.609375 C 10.234375 11.972656 10.582031 12.527344 10.765625 12.765625 C 10.917969 12.964844 11.679688 13.730469 11.964844 13.972656 C 12.167969 14.148438 12.300781 14.296875 12.367188 14.421875 C 12.472656 14.636719 13.011719 15.183594 13.300781 15.363281 C 13.398438 15.425781 13.484375 15.480469 13.496094 15.480469 C 13.503906 15.480469 13.796875 15.660156 14.152344 15.878906 C 15.230469 16.558594 15.402344 16.660156 15.855469 16.878906 C 16.097656 17 16.308594 17.097656 16.324219 17.097656 C 16.34375 17.097656 16.574219 17.183594 16.84375 17.292969 C 17.398438 17.507812 17.332031 17.433594 17.695312 18.28125 C 18.3125 19.726562 18.832031 20.679688 19.277344 21.183594 C 19.464844 21.398438 19.667969 21.667969 19.667969 21.699219 C 19.667969 21.738281 19.828125 21.925781 20.121094 22.238281 C 20.257812 22.386719 20.371094 22.519531 20.371094 22.535156 C 20.371094 22.585938 21.011719 23.148438 21.269531 23.320312 C 21.546875 23.503906 21.921875 23.660156 22.0625 23.644531 C 22.1875 23.632812 22.1875 23.625 22.277344 23.296875 C 22.394531 22.835938 22.421875 22.777344 22.585938 22.640625 C 22.714844 22.535156 22.734375 22.496094 22.753906 22.308594 C 22.789062 21.921875 22.695312 21.34375 22.476562 20.671875 C 22.257812 19.976562 22.226562 19.910156 21.988281 19.566406 C 21.816406 19.328125 21.78125 19.230469 21.875 19.230469 C 21.917969 19.234375 22.199219 19.328125 22.421875 19.421875 C 22.484375 19.445312 22.570312 19.464844 22.621094 19.464844 C 22.667969 19.464844 22.722656 19.484375 22.742188 19.503906 C 22.765625 19.523438 22.941406 19.585938 23.132812 19.640625 C 23.328125 19.699219 23.753906 19.835938 24.074219 19.941406 C 24.9375 20.222656 25.203125 20.296875 25.355469 20.296875 C 25.433594 20.296875 25.535156 20.332031 25.589844 20.371094 C 25.640625 20.414062 25.761719 20.464844 25.855469 20.496094 C 25.953125 20.515625 26.085938 20.574219 26.152344 20.609375 C 26.214844 20.652344 26.371094 20.710938 26.496094 20.75 C 26.757812 20.820312 26.925781 20.972656 27.359375 21.527344 C 27.679688 21.9375 28.316406 22.582031 28.792969 22.984375 C 29.175781 23.304688 29.742188 23.890625 29.90625 24.121094 C 29.9375 24.179688 30.050781 24.332031 30.144531 24.464844 C 30.246094 24.589844 30.394531 24.796875 30.476562 24.914062 C 30.777344 25.347656 31.089844 25.597656 31.585938 25.800781 C 31.828125 25.894531 31.890625 25.902344 32.285156 25.894531 L 32.71875 25.882812 L 32.804688 25.6875 C 32.886719 25.476562 32.910156 24.863281 32.855469 24.617188 C 32.828125 24.527344 32.84375 24.453125 32.886719 24.363281 C 32.941406 24.261719 32.957031 24.109375 32.960938 23.625 C 32.96875 23.058594 32.96875 23.007812 32.886719 22.863281 C 32.796875 22.707031 32.660156 22.347656 32.617188 22.148438 C 32.59375 22.042969 32.523438 21.984375 32 21.679688 C 31.859375 21.589844 31.773438 21.515625 31.773438 21.472656 C 31.773438 21.433594 31.796875 21.402344 31.828125 21.402344 C 31.898438 21.402344 32.234375 21.503906 32.929688 21.742188 C 33.804688 22.035156 34.074219 22.140625 34.195312 22.214844 C 34.734375 22.566406 34.957031 22.804688 35.234375 23.347656 C 35.351562 23.585938 35.546875 23.910156 35.667969 24.078125 C 35.785156 24.246094 35.949219 24.476562 36.03125 24.589844 C 36.113281 24.710938 36.242188 24.878906 36.316406 24.972656 C 36.390625 25.066406 36.585938 25.316406 36.746094 25.527344 C 37.230469 26.160156 37.382812 26.347656 37.609375 26.574219 C 38.476562 27.445312 38.847656 27.703125 39.339844 27.746094 L 39.628906 27.769531 L 39.734375 27.644531 C 39.792969 27.574219 39.84375 27.484375 39.84375 27.441406 C 39.84375 27.394531 39.855469 27.332031 39.878906 27.292969 C 39.898438 27.257812 39.929688 27.15625 39.957031 27.066406 C 40.105469 26.511719 40.15625 26.328125 40.226562 26.121094 C 40.273438 25.992188 40.351562 25.640625 40.410156 25.34375 C 40.515625 24.769531 40.808594 23.839844 40.949219 23.636719 C 40.992188 23.566406 41.117188 23.402344 41.230469 23.257812 C 41.34375 23.117188 41.464844 22.929688 41.503906 22.847656 C 41.542969 22.761719 41.636719 22.589844 41.710938 22.472656 C 42.03125 21.972656 42.113281 21.835938 42.351562 21.402344 C 42.441406 21.238281 42.578125 21.015625 42.667969 20.902344 C 42.785156 20.738281 42.816406 20.660156 42.816406 20.527344 C 42.816406 20.347656 42.921875 19.910156 42.984375 19.835938 C 43.003906 19.808594 43.03125 19.699219 43.042969 19.597656 C 43.050781 19.496094 43.074219 19.34375 43.097656 19.269531 C 43.148438 19.078125 43.140625 18.851562 43.085938 18.808594 C 43.058594 18.785156 42.929688 18.753906 42.796875 18.742188 C 42.671875 18.726562 42.433594 18.703125 42.269531 18.683594 C 42.09375 18.65625 41.890625 18.65625 41.761719 18.683594 C 41.644531 18.703125 41.4375 18.714844 41.308594 18.714844 C 41.175781 18.714844 40.917969 18.746094 40.734375 18.777344 C 40.554688 18.808594 40.347656 18.835938 40.273438 18.839844 C 40.199219 18.84375 40.03125 18.871094 39.898438 18.898438 C 39.765625 18.929688 39.457031 18.972656 39.210938 18.996094 C 38.964844 19.019531 38.640625 19.058594 38.488281 19.078125 C 38.207031 19.117188 37.566406 19.167969 36.90625 19.214844 C 36.582031 19.234375 36.496094 19.226562 36.277344 19.152344 C 36.136719 19.101562 35.917969 19 35.785156 18.921875 C 35.339844 18.644531 34.855469 18.226562 34.878906 18.144531 C 34.902344 18.074219 35.140625 18.078125 35.390625 18.160156 C 35.742188 18.277344 36.382812 18.296875 36.578125 18.195312 C 37.019531 17.976562 37.59375 17.34375 37.667969 16.992188 C 37.753906 16.574219 37.175781 14.945312 36.679688 14.203125 C 36.613281 14.105469 36.535156 13.964844 36.507812 13.878906 C 36.429688 13.660156 35.988281 13.226562 35.671875 13.058594 C 35.113281 12.761719 34.636719 12.660156 33.339844 12.558594 C 32.648438 12.503906 32.28125 12.457031 31.949219 12.386719 C 31.796875 12.351562 31.558594 12.316406 31.421875 12.304688 C 30.945312 12.265625 30.757812 12.203125 30.699219 12.058594 C 30.671875 12.003906 30.585938 11.953125 30.457031 11.910156 C 30.339844 11.875 30.238281 11.828125 30.226562 11.808594 C 30.207031 11.785156 30.175781 11.765625 30.136719 11.765625 C 30.101562 11.765625 30.007812 11.707031 29.925781 11.636719 C 29.652344 11.402344 29.5625 11.34375 29.050781 11.078125 C 28.777344 10.933594 28.46875 10.753906 28.367188 10.683594 C 28.269531 10.613281 28.03125 10.46875 27.835938 10.359375 C 27.640625 10.25 27.394531 10.117188 27.285156 10.058594 C 26.976562 9.882812 26.703125 9.757812 26.601562 9.738281 C 26.546875 9.722656 26.332031 9.589844 26.132812 9.4375 C 25.925781 9.285156 25.660156 9.121094 25.542969 9.078125 C 25.425781 9.035156 25.3125 8.984375 25.289062 8.964844 C 25.269531 8.949219 25.117188 8.878906 24.957031 8.808594 C 24.792969 8.734375 24.617188 8.644531 24.558594 8.605469 C 24.414062 8.503906 23.859375 8.269531 23.679688 8.234375 C 23.597656 8.222656 23.453125 8.164062 23.347656 8.113281 C 23.136719 8.007812 22.648438 7.839844 22.425781 7.796875 C 22.339844 7.777344 22.070312 7.699219 21.820312 7.617188 C 21.570312 7.53125 21.292969 7.464844 21.195312 7.464844 C 21.09375 7.464844 20.90625 7.425781 20.773438 7.382812 C 20.636719 7.339844 20.433594 7.296875 20.320312 7.285156 C 20.210938 7.277344 20.019531 7.25 19.898438 7.226562 C 19.546875 7.160156 18.25 7.101562 17.882812 7.136719 Z M 17.882812 7.136719 "/>
</g>
</svg>
