<?xml version="1.0" encoding="UTF-8"?>
<svg xmlns="http://www.w3.org/2000/svg" xmlns:xlink="http://www.w3.org/1999/xlink" width="69pt" height="44pt" viewBox="0 0 69 44" version="1.1">
<g id="surface1">
<path style=" stroke:none;fill-rule:nonzero;fill:rgb(0%,0%,0%);fill-opacity:1;" d="M 24.609375 9.8125 C 24.488281 9.820312 24.175781 9.875 23.90625 9.9375 C 23.164062 10.105469 22.488281 10.21875 22.105469 10.246094 C 21.914062 10.261719 21.703125 10.308594 21.632812 10.355469 C 21.476562 10.457031 21.207031 10.523438 20.671875 10.585938 C 20.4375 10.613281 20.125 10.664062 19.972656 10.695312 C 19.828125 10.730469 19.390625 10.773438 19 10.792969 C 18.621094 10.816406 18.246094 10.863281 18.183594 10.902344 C 18.117188 10.941406 17.957031 10.96875 17.820312 10.96875 C 17.542969 10.96875 17.066406 11.082031 16.824219 11.210938 C 16.726562 11.261719 16.472656 11.34375 16.257812 11.402344 C 16.042969 11.457031 15.605469 11.636719 15.277344 11.796875 C 14.953125 11.960938 14.613281 12.113281 14.527344 12.128906 C 14.4375 12.152344 14.296875 12.222656 14.21875 12.285156 L 14.074219 12.40625 L 14.253906 12.777344 C 14.351562 12.976562 14.46875 13.183594 14.523438 13.242188 C 14.601562 13.328125 14.601562 13.34375 14.527344 13.410156 C 14.464844 13.464844 14.414062 13.453125 14.257812 13.328125 C 14.148438 13.253906 14.011719 13.097656 13.941406 12.988281 C 13.691406 12.589844 13.503906 12.542969 13.039062 12.730469 C 12.636719 12.894531 12.566406 12.980469 12.558594 13.328125 C 12.558594 13.5625 12.59375 13.640625 12.769531 13.878906 C 12.882812 14.03125 13.105469 14.449219 13.261719 14.800781 C 13.546875 15.457031 13.585938 15.535156 13.8125 15.960938 C 14.082031 16.460938 14.558594 17.226562 14.8125 17.554688 C 15.023438 17.824219 16.070312 18.878906 16.464844 19.210938 C 16.742188 19.453125 16.925781 19.660156 17.019531 19.832031 C 17.164062 20.125 17.90625 20.875 18.300781 21.125 C 18.4375 21.210938 18.554688 21.285156 18.570312 21.285156 C 18.582031 21.285156 18.984375 21.53125 19.472656 21.835938 C 20.957031 22.769531 21.191406 22.90625 21.816406 23.210938 C 22.148438 23.375 22.441406 23.507812 22.460938 23.507812 C 22.488281 23.507812 22.808594 23.628906 23.175781 23.777344 C 23.941406 24.074219 23.851562 23.972656 24.347656 25.136719 C 25.199219 27.125 25.914062 28.433594 26.523438 29.128906 C 26.78125 29.421875 27.0625 29.792969 27.0625 29.835938 C 27.0625 29.890625 27.28125 30.148438 27.6875 30.578125 C 27.875 30.78125 28.03125 30.964844 28.03125 30.984375 C 28.03125 31.054688 28.910156 31.828125 29.269531 32.066406 C 29.648438 32.320312 30.164062 32.53125 30.359375 32.511719 C 30.527344 32.496094 30.53125 32.484375 30.652344 32.035156 C 30.8125 31.398438 30.851562 31.316406 31.078125 31.132812 C 31.253906 30.984375 31.28125 30.929688 31.308594 30.675781 C 31.355469 30.140625 31.226562 29.347656 30.929688 28.421875 C 30.628906 27.46875 30.585938 27.378906 30.257812 26.90625 C 30.019531 26.578125 29.972656 26.441406 30.097656 26.441406 C 30.160156 26.445312 30.546875 26.578125 30.851562 26.703125 C 30.9375 26.738281 31.054688 26.765625 31.125 26.765625 C 31.191406 26.765625 31.265625 26.789062 31.292969 26.816406 C 31.324219 26.84375 31.566406 26.929688 31.832031 27.007812 C 32.101562 27.085938 32.683594 27.273438 33.125 27.417969 C 34.316406 27.804688 34.679688 27.90625 34.886719 27.90625 C 34.996094 27.90625 35.136719 27.957031 35.210938 28.011719 C 35.28125 28.070312 35.449219 28.140625 35.578125 28.179688 C 35.710938 28.210938 35.894531 28.289062 35.984375 28.339844 C 36.074219 28.394531 36.289062 28.476562 36.460938 28.53125 C 36.816406 28.628906 37.050781 28.839844 37.644531 29.597656 C 38.089844 30.164062 38.964844 31.050781 39.621094 31.605469 C 40.148438 32.042969 40.925781 32.847656 41.148438 33.167969 C 41.195312 33.246094 41.351562 33.457031 41.480469 33.636719 C 41.617188 33.8125 41.820312 34.097656 41.933594 34.257812 C 42.347656 34.855469 42.78125 35.199219 43.464844 35.476562 C 43.792969 35.605469 43.878906 35.617188 44.425781 35.605469 L 45.023438 35.589844 L 45.136719 35.320312 C 45.25 35.03125 45.285156 34.1875 45.207031 33.847656 C 45.171875 33.726562 45.191406 33.625 45.253906 33.5 C 45.328125 33.359375 45.351562 33.148438 45.355469 32.484375 C 45.367188 31.707031 45.363281 31.636719 45.25 31.4375 C 45.128906 31.222656 44.941406 30.726562 44.882812 30.453125 C 44.851562 30.308594 44.753906 30.230469 44.03125 29.808594 C 43.835938 29.6875 43.71875 29.585938 43.71875 29.523438 C 43.71875 29.472656 43.753906 29.425781 43.796875 29.425781 C 43.890625 29.425781 44.355469 29.570312 45.308594 29.894531 C 46.515625 30.300781 46.886719 30.441406 47.050781 30.546875 C 47.796875 31.027344 48.101562 31.355469 48.484375 32.105469 C 48.644531 32.429688 48.914062 32.878906 49.078125 33.109375 C 49.238281 33.335938 49.464844 33.65625 49.578125 33.8125 C 49.691406 33.976562 49.867188 34.210938 49.972656 34.339844 C 50.074219 34.464844 50.34375 34.8125 50.5625 35.101562 C 51.226562 35.96875 51.4375 36.226562 51.75 36.539062 C 52.941406 37.738281 53.457031 38.09375 54.132812 38.148438 L 54.53125 38.183594 L 54.675781 38.011719 C 54.757812 37.914062 54.824219 37.789062 54.824219 37.730469 C 54.824219 37.667969 54.84375 37.582031 54.871094 37.527344 C 54.898438 37.480469 54.945312 37.339844 54.980469 37.21875 C 55.183594 36.453125 55.253906 36.203125 55.351562 35.914062 C 55.414062 35.738281 55.523438 35.257812 55.605469 34.847656 C 55.75 34.058594 56.152344 32.777344 56.34375 32.5 C 56.40625 32.40625 56.578125 32.175781 56.734375 31.980469 C 56.886719 31.785156 57.054688 31.527344 57.109375 31.414062 C 57.164062 31.296875 57.292969 31.0625 57.394531 30.898438 C 57.835938 30.210938 57.945312 30.023438 58.273438 29.425781 C 58.398438 29.203125 58.589844 28.894531 58.710938 28.738281 C 58.875 28.515625 58.917969 28.40625 58.917969 28.226562 C 58.917969 27.976562 59.058594 27.375 59.144531 27.273438 C 59.171875 27.234375 59.210938 27.085938 59.226562 26.945312 C 59.238281 26.804688 59.269531 26.597656 59.300781 26.496094 C 59.371094 26.230469 59.363281 25.921875 59.285156 25.859375 C 59.25 25.828125 59.070312 25.789062 58.890625 25.769531 C 58.714844 25.75 58.386719 25.714844 58.164062 25.6875 C 57.921875 25.652344 57.640625 25.652344 57.464844 25.6875 C 57.300781 25.714844 57.015625 25.734375 56.839844 25.734375 C 56.65625 25.734375 56.304688 25.773438 56.050781 25.816406 C 55.804688 25.859375 55.519531 25.898438 55.414062 25.902344 C 55.3125 25.910156 55.082031 25.945312 54.898438 25.984375 C 54.71875 26.027344 54.292969 26.089844 53.953125 26.121094 C 53.613281 26.152344 53.171875 26.203125 52.960938 26.230469 C 52.574219 26.285156 51.691406 26.355469 50.78125 26.417969 C 50.335938 26.445312 50.21875 26.4375 49.917969 26.332031 C 49.722656 26.265625 49.421875 26.125 49.242188 26.019531 C 48.628906 25.636719 47.960938 25.0625 47.992188 24.949219 C 48.023438 24.851562 48.355469 24.855469 48.695312 24.96875 C 49.183594 25.128906 50.0625 25.15625 50.332031 25.019531 C 50.941406 24.71875 51.726562 23.847656 51.832031 23.363281 C 51.949219 22.789062 51.15625 20.550781 50.46875 19.53125 C 50.378906 19.394531 50.273438 19.199219 50.234375 19.085938 C 50.128906 18.785156 49.519531 18.1875 49.085938 17.957031 C 48.316406 17.546875 47.660156 17.40625 45.875 17.265625 C 44.921875 17.191406 44.417969 17.128906 43.960938 17.03125 C 43.753906 16.984375 43.425781 16.933594 43.234375 16.917969 C 42.582031 16.863281 42.320312 16.777344 42.242188 16.582031 C 42.207031 16.503906 42.085938 16.433594 41.90625 16.375 C 41.746094 16.328125 41.605469 16.261719 41.589844 16.234375 C 41.566406 16.203125 41.519531 16.179688 41.46875 16.179688 C 41.421875 16.179688 41.292969 16.097656 41.179688 16 C 40.800781 15.679688 40.675781 15.597656 39.976562 15.234375 C 39.597656 15.035156 39.171875 14.789062 39.035156 14.691406 C 38.898438 14.59375 38.570312 14.394531 38.300781 14.246094 C 38.035156 14.09375 37.695312 13.910156 37.546875 13.828125 C 37.121094 13.589844 36.746094 13.417969 36.601562 13.390625 C 36.527344 13.371094 36.234375 13.1875 35.957031 12.976562 C 35.675781 12.765625 35.308594 12.542969 35.148438 12.480469 C 34.984375 12.421875 34.828125 12.351562 34.796875 12.324219 C 34.769531 12.304688 34.558594 12.207031 34.339844 12.109375 C 34.117188 12.011719 33.871094 11.886719 33.792969 11.832031 C 33.59375 11.691406 32.828125 11.371094 32.582031 11.320312 C 32.46875 11.304688 32.269531 11.226562 32.128906 11.15625 C 31.835938 11.011719 31.164062 10.777344 30.859375 10.71875 C 30.742188 10.695312 30.367188 10.585938 30.027344 10.472656 C 29.679688 10.355469 29.296875 10.261719 29.164062 10.261719 C 29.027344 10.261719 28.769531 10.210938 28.582031 10.152344 C 28.398438 10.09375 28.117188 10.035156 27.960938 10.015625 C 27.808594 10.007812 27.546875 9.96875 27.382812 9.9375 C 26.898438 9.847656 25.113281 9.765625 24.609375 9.8125 Z M 24.609375 9.8125 "/>
</g>
</svg>
